<?xml version="1.0" encoding="UTF-8" standalone="no"?>
<!-- Created with Inkscape (http://www.inkscape.org/) -->

<svg
   width="313.06232mm"
   height="78.49012mm"
   viewBox="0 0 313.06231 78.49012"
   version="1.1"
   id="svg1"
   xml:space="preserve"
   sodipodi:docname="logo-full-dark.svg"
   inkscape:version="1.4.2 (ebf0e940d0, 2025-05-08)"
   xmlns:inkscape="http://www.inkscape.org/namespaces/inkscape"
   xmlns:sodipodi="http://sodipodi.sourceforge.net/DTD/sodipodi-0.dtd"
   xmlns="http://www.w3.org/2000/svg"
   xmlns:svg="http://www.w3.org/2000/svg"><sodipodi:namedview
     id="namedview1"
     pagecolor="#000000"
     bordercolor="#000000"
     borderopacity="0.25"
     inkscape:showpageshadow="2"
     inkscape:pageopacity="0.0"
     inkscape:pagecheckerboard="0"
     inkscape:deskcolor="#ffffff"
     inkscape:document-units="mm"
     inkscape:zoom="0.46958175"
     inkscape:cx="298.13765"
     inkscape:cy="36.202429"
     inkscape:window-width="2560"
     inkscape:window-height="1371"
     inkscape:window-x="0"
     inkscape:window-y="0"
     inkscape:window-maximized="1"
     inkscape:current-layer="layer1" /><defs
     id="defs1" /><g
     inkscape:label="Layer 1"
     inkscape:groupmode="layer"
     id="layer1"
     transform="translate(-56.702431,-73.63355)"><g
       id="g25"
       transform="matrix(0.75275548,0,0,0.75275548,48.586454,27.540093)"><path
         id="path13"
         style="font-variation-settings:normal;opacity:1;fill:#f2f2f2;fill-opacity:1;stroke:#303030;stroke-width:7;stroke-linecap:butt;stroke-linejoin:miter;stroke-miterlimit:4;stroke-dasharray:none;stroke-dashoffset:0;stroke-opacity:1;paint-order:stroke markers fill"
         d="m 123.67721,98.759347 v 46.541343 0.27854 a 3.4724677,3.4724677 0 0 0 3.3078,3.32899 h 0.32402 49.47966 0.33332 a 3.4724677,3.4724677 0 0 0 3.28817,-3.12022 v -0.69608 -46.332573 z" /><path
         id="path14"
         style="font-variation-settings:normal;opacity:1;fill:#f0c533;fill-opacity:1;stroke:#303030;stroke-width:7;stroke-linecap:butt;stroke-linejoin:miter;stroke-miterlimit:4;stroke-dasharray:none;stroke-dashoffset:0;stroke-opacity:1;paint-order:stroke markers fill"
         d="m 126.96538,84.814978 a 3.4724677,3.4724677 0 0 0 -3.28817,3.120223 v 0.696082 6.19187 h 56.73297 V 88.42251 88.143974 a 3.4724677,3.4724677 0 0 0 -3.30781,-3.328996 h -0.32401 -49.47967 z" /><path
         style="font-variation-settings:normal;opacity:1;fill:#303030;fill-opacity:1;stroke:none;stroke-width:7;stroke-linecap:butt;stroke-linejoin:miter;stroke-miterlimit:4;stroke-dasharray:none;stroke-dashoffset:0;stroke-opacity:1;paint-order:stroke markers fill"
         d="m 144.17662,103.04022 -7.47029,7.6695 -3.33673,-3.18733 c 0,0 -0.99604,-0.59762 -1.99208,0.14941 -0.99604,0.74703 -0.59762,1.99208 -0.59762,1.99208 l 4.78099,5.02999 c 0,0 0.34861,0.34862 0.99604,0.34862 0.64742,0 1.12605,-0.3613 1.12605,-0.3613 l 8.58533,-9.05127 c 0,0 0.79683,-1.29485 -0.19921,-2.29089 -0.99604,-0.99604 -1.89248,-0.29881 -1.89248,-0.29881 z"
         id="path15" /><path
         style="font-variation-settings:normal;opacity:1;fill:#303030;fill-opacity:1;stroke:none;stroke-width:7;stroke-linecap:butt;stroke-linejoin:miter;stroke-miterlimit:4;stroke-dasharray:none;stroke-dashoffset:0;stroke-opacity:1;paint-order:stroke markers fill"
         d="m 144.17662,119.01956 -7.47029,7.6695 -3.33673,-3.18733 c 0,0 -0.99604,-0.59762 -1.99208,0.14941 -0.99604,0.74703 -0.59762,1.99208 -0.59762,1.99208 l 4.78099,5.02999 c 0,0 0.34861,0.34862 0.99604,0.34862 0.64742,0 1.12605,-0.3613 1.12605,-0.3613 l 8.58533,-9.05127 c 0,0 0.79683,-1.29485 -0.19921,-2.29089 -0.99604,-0.99604 -1.89248,-0.29881 -1.89248,-0.29881 z"
         id="path16" /><path
         style="font-variation-settings:normal;fill:#303030;fill-opacity:1;stroke:none;stroke-width:7;stroke-linecap:butt;stroke-linejoin:miter;stroke-miterlimit:4;stroke-dasharray:none;stroke-dashoffset:0;stroke-opacity:1;paint-order:stroke markers fill"
         d="m 144.97334,134.36277 -7.47029,7.6695 -3.33673,-3.18733 c 0,0 -0.99604,-0.59762 -1.99208,0.14941 -0.99604,0.74703 -0.59762,1.99208 -0.59762,1.99208 l 4.78099,5.02999 c 0,0 0.34861,0.34862 0.99604,0.34862 0.64742,0 1.12605,-0.3613 1.12605,-0.3613 l 8.58533,-9.05127 c 0,0 0.79683,-1.29485 -0.19921,-2.29089 -0.99604,-0.99604 -1.89248,-0.29881 -1.89248,-0.29881 z"
         id="path16-4" /><path
         style="font-variation-settings:normal;opacity:1;fill:#303030;fill-opacity:1;stroke:none;stroke-width:7;stroke-linecap:butt;stroke-linejoin:miter;stroke-miterlimit:4;stroke-dasharray:none;stroke-dashoffset:0;stroke-opacity:1;paint-order:stroke markers fill"
         d="m 173.28586,105.87893 h -21.24053 c 0,0 -1.12054,-0.0747 -1.12054,1.79287 0,1.86757 1.04584,2.04188 1.04584,2.04188 h 21.26543 c 0,0 1.04584,-0.39842 1.04584,-1.96718 0,-1.56876 -0.99604,-1.86757 -0.99604,-1.86757 z"
         id="path17"
         sodipodi:nodetypes="ccsccsc" /><path
         style="font-variation-settings:normal;opacity:1;fill:#303030;fill-opacity:1;stroke:none;stroke-width:7;stroke-linecap:butt;stroke-linejoin:miter;stroke-miterlimit:4;stroke-dasharray:none;stroke-dashoffset:0;stroke-opacity:1;paint-order:stroke markers fill"
         d="m 169.09524,121.95788 h -17.04991 c 0,0 -1.12054,-0.0747 -1.12054,1.79287 0,1.86757 1.04584,2.04188 1.04584,2.04188 h 17.07481 c 0,0 1.04584,-0.39842 1.04584,-1.96718 0,-1.56876 -0.99604,-1.86757 -0.99604,-1.86757 z"
         id="path18"
         sodipodi:nodetypes="ccsccsc" /><path
         style="font-variation-settings:normal;opacity:1;fill:#303030;fill-opacity:1;stroke:none;stroke-width:7;stroke-linecap:butt;stroke-linejoin:miter;stroke-miterlimit:4;stroke-dasharray:none;stroke-dashoffset:0;stroke-opacity:1;paint-order:stroke markers fill"
         d="m 160.64357,137.70412 h -8.59824 c 0,0 -1.12054,-0.0747 -1.12054,1.79287 0,1.86757 1.04584,2.04188 1.04584,2.04188 h 8.62314 c 0,0 1.04584,-0.39842 1.04584,-1.96718 0,-1.56876 -0.99604,-1.86757 -0.99604,-1.86757 z"
         id="path19"
         sodipodi:nodetypes="ccsccsc" /><path
         id="path20"
         style="font-variation-settings:normal;opacity:1;fill:#02929d;fill-opacity:1;stroke:#303030;stroke-width:7;stroke-linecap:butt;stroke-linejoin:round;stroke-miterlimit:4;stroke-dasharray:none;stroke-dashoffset:0;stroke-opacity:1;paint-order:stroke markers fill"
         d="m 180.41018,123.33769 -13.455,25.57053 h 9.83351 0.33332 a 3.4724677,3.4724677 0 0 0 3.28817,-3.12022 v -0.69608 z" /><path
         style="font-variation-settings:normal;opacity:1;fill:#f0c533;fill-opacity:1;stroke:#303030;stroke-width:7;stroke-linecap:butt;stroke-linejoin:round;stroke-miterlimit:4;stroke-dasharray:none;stroke-dashoffset:0;stroke-opacity:1;paint-order:stroke markers fill"
         d="m 133.95897,79.111151 v 6.638084 c 0,0 -0.12325,1.86641 2.0777,1.86641 2.20096,0 1.97206,-1.884018 1.97206,-1.884018 V 79.05833 c 0,0 0.12325,-1.49665 -2.00728,-1.49665 -2.13052,0 -2.04248,1.549471 -2.04248,1.549471 z"
         id="path21" /><path
         style="font-variation-settings:normal;opacity:1;fill:#f0c533;fill-opacity:1;stroke:#303030;stroke-width:7;stroke-linecap:butt;stroke-linejoin:round;stroke-miterlimit:4;stroke-dasharray:none;stroke-dashoffset:0;stroke-opacity:1;paint-order:stroke markers fill"
         d="m 164.10326,79.111151 v 6.638084 c 0,0 -0.12325,1.86641 2.0777,1.86641 2.20096,0 1.97206,-1.884018 1.97206,-1.884018 V 79.05833 c 0,0 0.12325,-1.49665 -2.00728,-1.49665 -2.13052,0 -2.04248,1.549471 -2.04248,1.549471 z"
         id="path22" /></g><g
       id="g2"
       style="font-variation-settings:normal;opacity:1;fill:#02929d;fill-opacity:1;stroke:#303030;stroke-width:7;stroke-linecap:butt;stroke-linejoin:round;stroke-miterlimit:4;stroke-dasharray:none;stroke-dashoffset:0;stroke-opacity:1;paint-order:stroke markers fill;stop-color:#000000;stop-opacity:1"
       transform="matrix(0.75275548,0,0,0.75275548,48.586454,27.540093)"><path
         style="font-variation-settings:normal;fill:#02929d;fill-opacity:1;stroke:#303030;stroke-width:7;stroke-linecap:butt;stroke-linejoin:round;stroke-miterlimit:4;stroke-dasharray:none;stroke-dashoffset:0;stroke-opacity:1;paint-order:stroke markers fill;stop-color:#000000;stop-opacity:1"
         d="m 24.855035,88.106304 c 1.253563,4.28547 4.387807,11.546017 12.100845,12.634166 7.713038,1.08815 12.378764,0.90522 12.378764,0.90522 l -3.193454,3.57354 c 0,0 -10.433076,-1.90246 -12.55758,-2.06958 -2.963204,-0.23308 -6.365756,-3.63633 -7.189504,-5.573438 -0.845439,-1.988116 -1.465144,-4.855071 -1.539071,-9.469908 z"
         id="path2"
         sodipodi:nodetypes="csccssc" /><path
         style="font-variation-settings:normal;opacity:1;fill:#02929d;fill-opacity:1;stroke:#303030;stroke-width:7;stroke-linecap:butt;stroke-linejoin:round;stroke-miterlimit:4;stroke-dasharray:none;stroke-dashoffset:0;stroke-opacity:1;paint-order:stroke markers fill;stop-color:#000000;stop-opacity:1"
         d="m 62.284937,111.78235 c 0.454787,0.12574 2.839018,0.85087 9.356712,1.32088 7.767099,0.5601 8.274998,-0.0197 8.274998,-0.0197 2.348547,-0.73818 -1.922835,-2.68307 -0.458151,-4.72736 1.574096,-2.197 4.394235,3.85546 7.65064,5.85395 11.083871,-0.11072 10.279906,-1.27178 19.561234,-1.52295 0,0 5.05668,2.9764 5.82478,2.81637 0.7681,-0.16002 1.92026,-0.70409 1.92026,-0.70409 0,0 0.32004,-0.41606 -0.41606,-0.89612 -0.7361,-0.48006 -5.53674,-3.7445 -5.53674,-3.7445 0,0 -1.08815,-0.12802 -3.39246,-0.19203 -2.30431,-0.064 -10.593428,-0.48007 -10.593428,-0.48007 0,0 -3.584482,-0.48006 -2.656356,-3.84051 0.928124,-3.36046 2.624352,-5.60076 2.624352,-5.60076 0,0 4.256575,-4.608617 8.193102,-5.472733 3.93653,-0.864119 8.96121,-0.160023 8.96121,-0.160023 0,0 2.2723,-0.128016 3.16843,-1.376185 0.89612,-1.248169 1.49094,-2.705167 1.49094,-2.705167 0,0 -3.75937,-1.016872 -5.10355,-1.304911 -1.34418,-0.288039 -2.71277,-1.039005 -3.41686,-2.031137 -0.7041,-0.992135 -1.03757,-3.948179 -4.59005,-4.076195 -3.55247,-0.128019 -5.180306,-0.02263 -5.812959,-0.425263 -0.668492,-0.425441 -2.518192,-3.646442 -5.765717,-5.126905 0,0 2.700896,3.844737 1.300812,6.739825 -1.072651,2.218023 -6.553322,4.433897 -13.159653,8.190439 -3.511093,1.740139 -18.230472,7.750235 -20.790488,8.036295 0,0 -8.577155,-0.016 -12.657704,2.59235 -4.08055,2.60835 -5.280712,5.29672 -5.280712,5.29672 0,0 -3.520474,9.77731 -4.480603,11.00948 -0.960129,1.23216 -2.752371,3.7605 -5.968804,5.08868 -3.216433,1.32818 -3.536476,1.29618 -3.536476,1.29618 l -9.121229,12.78572 c 0,0 -0.384051,1.20016 0.416056,0.91212 0.800108,-0.28804 4.816649,-3.87252 6.464871,-5.80878 1.648222,-1.93626 3.968535,-5.42473 3.968535,-5.42473 0,0 6.800916,-0.43206 10.817457,-2.27231 4.01654,-1.84024 7.029966,-2.54528 9.750332,-5.92174 2.720367,-3.37645 3.800943,-5.54082 6.281277,-7.38106 2.480334,-1.84025 3.3296,-2.45782 4.562027,-2.4383 1.166454,0.0185 1.610523,0.42065 2.149975,1.71451 z"
         id="path1"
         sodipodi:nodetypes="cscsccscscscscscscsssscsccscssccsscsssscc" /></g><g
       id="g7"
       transform="matrix(1.049395,0,0,1.049395,178.94756,-88.809101)"><text
         xml:space="preserve"
         style="font-size:48.6978px;text-align:start;writing-mode:lr-tb;direction:ltr;text-anchor:start;fill:#f2f2f2;fill-opacity:1;stroke-width:0.280949;stroke:#000000;stroke-opacity:1"
         x="23.590586"
         y="184.39282"
         id="text1"
         transform="scale(0.95776744,1.0440948)"><tspan
           sodipodi:role="line"
           id="tspan1"
           style="font-style:normal;font-variant:normal;font-weight:bold;font-stretch:normal;font-size:48.6978px;font-family:Montserrat;-inkscape-font-specification:Montserrat;fill:#f2f2f2;fill-opacity:1;stroke-width:0.280949;stroke:#000000;stroke-opacity:1"
           x="23.590586"
           y="184.39282">Flyball</tspan></text><text
         xml:space="preserve"
         style="font-size:40.6915px;text-align:start;writing-mode:lr-tb;direction:ltr;text-anchor:start;fill:#f2f2f2;fill-opacity:1;stroke-width:0.234759;stroke:#000000;stroke-opacity:1"
         x="24.116875"
         y="219.5703"
         id="text1-0"
         transform="scale(0.95776744,1.0440948)"><tspan
           sodipodi:role="line"
           id="tspan1-2"
           style="font-style:normal;font-variant:normal;font-weight:bold;font-stretch:normal;font-size:40.6915px;font-family:Montserrat;-inkscape-font-specification:Montserrat;fill:#f2f2f2;fill-opacity:1;stroke-width:0.234759;stroke:#000000;stroke-opacity:1"
           x="24.116875"
           y="219.5703">Planner</tspan></text></g><g
       id="g6"
       transform="matrix(0.75275548,0,0,0.75275548,-103.09313,-56.29805)"><circle
         style="font-variation-settings:normal;opacity:1;fill:#f0c533;fill-opacity:1;stroke:#303030;stroke-width:7;stroke-linecap:butt;stroke-linejoin:round;stroke-miterlimit:4;stroke-dasharray:none;stroke-dashoffset:0;stroke-opacity:1;paint-order:stroke markers fill"
         id="path5"
         cx="298.80322"
         cy="246.28322"
         r="10.945474" /><path
         id="path6-6"
         style="font-variation-settings:normal;opacity:1;fill:#ffffff;fill-opacity:1;stroke:none;stroke-width:8.95097;stroke-linecap:butt;stroke-linejoin:round;stroke-miterlimit:4;stroke-dasharray:none;stroke-dashoffset:0;stroke-opacity:1;paint-order:stroke markers fill"
         d="m 303.60989,236.44965 a 11.131378,11.131378 0 0 0 -2.01021,6.37997 11.131378,11.131378 0 0 0 6.04717,9.90276 10.945474,10.945474 0 0 0 1.04284,-1.75183 8.9870892,8.9870892 0 0 1 -4.96249,-8.03569 8.9870892,8.9870892 0 0 1 1.7539,-5.33404 10.945474,10.945474 0 0 0 -1.87121,-1.16117 z" /><path
         id="path6-6-3"
         style="font-variation-settings:normal;opacity:1;fill:#ffffff;fill-opacity:1;stroke:none;stroke-width:8.95097;stroke-linecap:butt;stroke-linejoin:round;stroke-miterlimit:4;stroke-dasharray:none;stroke-dashoffset:0;stroke-opacity:1;paint-order:stroke markers fill"
         d="m 287.85788,246.29711 a 10.945474,10.945474 0 0 0 0.25063,2.31511 8.9870892,8.9870892 0 0 1 7.48998,8.13697 10.945474,10.945474 0 0 0 2.18953,0.43253 11.131378,11.131378 0 0 0 -9.93014,-10.88461 z" /></g></g></svg>
