<?xml version="1.0" encoding="UTF-8" standalone="no"?>
<!-- Created with Inkscape (http://www.inkscape.org/) -->

<svg
   width="64mm"
   height="64mm"
   viewBox="0 0 64 64"
   version="1.1"
   id="svg1"
   inkscape:version="1.4.2 (ebf0e940d0, 2025-05-08)"
   sodipodi:docname="icon.svg"
   xmlns:inkscape="http://www.inkscape.org/namespaces/inkscape"
   xmlns:sodipodi="http://sodipodi.sourceforge.net/DTD/sodipodi-0.dtd"
   xmlns="http://www.w3.org/2000/svg"
   xmlns:svg="http://www.w3.org/2000/svg">
  <sodipodi:namedview
     id="namedview1"
     pagecolor="#ffffff"
     bordercolor="#000000"
     borderopacity="0.25"
     inkscape:showpageshadow="2"
     inkscape:pageopacity="0.0"
     inkscape:pagecheckerboard="0"
     inkscape:deskcolor="#d1d1d1"
     inkscape:document-units="mm"
     inkscape:zoom="2.0667789"
     inkscape:cx="156.76568"
     inkscape:cy="171.28102"
     inkscape:window-width="2560"
     inkscape:window-height="1371"
     inkscape:window-x="0"
     inkscape:window-y="0"
     inkscape:window-maximized="1"
     inkscape:current-layer="layer1" />
  <defs
     id="defs1" />
  <g
     inkscape:label="Layer 1"
     inkscape:groupmode="layer"
     id="layer1">
    <g
       id="g25"
       transform="matrix(0.5829495,0,0,0.5829495,-43.440413,-35.411349)">
      <path
         id="path13"
         style="font-variation-settings:normal;opacity:1;fill:#f2f2f2;fill-opacity:1;stroke:#001f28;stroke-width:7;stroke-linecap:butt;stroke-linejoin:miter;stroke-miterlimit:4;stroke-dasharray:none;stroke-dashoffset:0;stroke-opacity:1;paint-order:stroke markers fill"
         d="m 123.67721,98.759347 v 46.541343 0.27854 a 3.4724677,3.4724677 0 0 0 3.3078,3.32899 h 0.32402 49.47966 0.33332 a 3.4724677,3.4724677 0 0 0 3.28817,-3.12022 v -0.69608 -46.332573 z" />
      <path
         id="path14"
         style="font-variation-settings:normal;opacity:1;fill:#f0c533;fill-opacity:1;stroke:#001f28;stroke-width:7;stroke-linecap:butt;stroke-linejoin:miter;stroke-miterlimit:4;stroke-dasharray:none;stroke-dashoffset:0;stroke-opacity:1;paint-order:stroke markers fill"
         d="m 126.96538,84.814978 a 3.4724677,3.4724677 0 0 0 -3.28817,3.120223 v 0.696082 6.19187 h 56.73297 V 88.42251 88.143974 a 3.4724677,3.4724677 0 0 0 -3.30781,-3.328996 h -0.32401 -49.47967 z" />
      <path
         style="font-variation-settings:normal;opacity:1;fill:#001f28;fill-opacity:1;stroke:none;stroke-width:7;stroke-linecap:butt;stroke-linejoin:miter;stroke-miterlimit:4;stroke-dasharray:none;stroke-dashoffset:0;stroke-opacity:1;paint-order:stroke markers fill"
         d="m 144.17662,103.04022 -7.47029,7.6695 -3.33673,-3.18733 c 0,0 -0.99604,-0.59762 -1.99208,0.14941 -0.99604,0.74703 -0.59762,1.99208 -0.59762,1.99208 l 4.78099,5.02999 c 0,0 0.34861,0.34862 0.99604,0.34862 0.64742,0 1.12605,-0.3613 1.12605,-0.3613 l 8.58533,-9.05127 c 0,0 0.79683,-1.29485 -0.19921,-2.29089 -0.99604,-0.99604 -1.89248,-0.29881 -1.89248,-0.29881 z"
         id="path15" />
      <path
         style="font-variation-settings:normal;opacity:1;fill:#001f28;fill-opacity:1;stroke:none;stroke-width:7;stroke-linecap:butt;stroke-linejoin:miter;stroke-miterlimit:4;stroke-dasharray:none;stroke-dashoffset:0;stroke-opacity:1;paint-order:stroke markers fill"
         d="m 144.17662,119.01956 -7.47029,7.6695 -3.33673,-3.18733 c 0,0 -0.99604,-0.59762 -1.99208,0.14941 -0.99604,0.74703 -0.59762,1.99208 -0.59762,1.99208 l 4.78099,5.02999 c 0,0 0.34861,0.34862 0.99604,0.34862 0.64742,0 1.12605,-0.3613 1.12605,-0.3613 l 8.58533,-9.05127 c 0,0 0.79683,-1.29485 -0.19921,-2.29089 -0.99604,-0.99604 -1.89248,-0.29881 -1.89248,-0.29881 z"
         id="path16" />
      <path
         style="font-variation-settings:normal;fill:#001f28;fill-opacity:1;stroke:none;stroke-width:7;stroke-linecap:butt;stroke-linejoin:miter;stroke-miterlimit:4;stroke-dasharray:none;stroke-dashoffset:0;stroke-opacity:1;paint-order:stroke markers fill"
         d="m 144.97334,134.36277 -7.47029,7.6695 -3.33673,-3.18733 c 0,0 -0.99604,-0.59762 -1.99208,0.14941 -0.99604,0.74703 -0.59762,1.99208 -0.59762,1.99208 l 4.78099,5.02999 c 0,0 0.34861,0.34862 0.99604,0.34862 0.64742,0 1.12605,-0.3613 1.12605,-0.3613 l 8.58533,-9.05127 c 0,0 0.79683,-1.29485 -0.19921,-2.29089 -0.99604,-0.99604 -1.89248,-0.29881 -1.89248,-0.29881 z"
         id="path16-4" />
      <path
         style="font-variation-settings:normal;opacity:1;fill:#001f28;fill-opacity:1;stroke:none;stroke-width:7;stroke-linecap:butt;stroke-linejoin:miter;stroke-miterlimit:4;stroke-dasharray:none;stroke-dashoffset:0;stroke-opacity:1;paint-order:stroke markers fill"
         d="m 173.28586,105.87893 h -21.24053 c 0,0 -1.12054,-0.0747 -1.12054,1.79287 0,1.86757 1.04584,2.04188 1.04584,2.04188 h 21.26543 c 0,0 1.04584,-0.39842 1.04584,-1.96718 0,-1.56876 -0.99604,-1.86757 -0.99604,-1.86757 z"
         id="path17"
         sodipodi:nodetypes="ccsccsc" />
      <path
         style="font-variation-settings:normal;opacity:1;fill:#001f28;fill-opacity:1;stroke:none;stroke-width:7;stroke-linecap:butt;stroke-linejoin:miter;stroke-miterlimit:4;stroke-dasharray:none;stroke-dashoffset:0;stroke-opacity:1;paint-order:stroke markers fill"
         d="m 169.09524,121.95788 h -17.04991 c 0,0 -1.12054,-0.0747 -1.12054,1.79287 0,1.86757 1.04584,2.04188 1.04584,2.04188 h 17.07481 c 0,0 1.04584,-0.39842 1.04584,-1.96718 0,-1.56876 -0.99604,-1.86757 -0.99604,-1.86757 z"
         id="path18"
         sodipodi:nodetypes="ccsccsc" />
      <path
         style="font-variation-settings:normal;opacity:1;fill:#001f28;fill-opacity:1;stroke:none;stroke-width:7;stroke-linecap:butt;stroke-linejoin:miter;stroke-miterlimit:4;stroke-dasharray:none;stroke-dashoffset:0;stroke-opacity:1;paint-order:stroke markers fill"
         d="m 160.64357,137.70412 h -8.59824 c 0,0 -1.12054,-0.0747 -1.12054,1.79287 0,1.86757 1.04584,2.04188 1.04584,2.04188 h 8.62314 c 0,0 1.04584,-0.39842 1.04584,-1.96718 0,-1.56876 -0.99604,-1.86757 -0.99604,-1.86757 z"
         id="path19"
         sodipodi:nodetypes="ccsccsc" />
      <path
         id="path20"
         style="font-variation-settings:normal;opacity:1;fill:#02929d;fill-opacity:1;stroke:#001f28;stroke-width:7;stroke-linecap:butt;stroke-linejoin:round;stroke-miterlimit:4;stroke-dasharray:none;stroke-dashoffset:0;stroke-opacity:1;paint-order:stroke markers fill"
         d="m 180.41018,123.33769 -13.455,25.57053 h 9.83351 0.33332 a 3.4724677,3.4724677 0 0 0 3.28817,-3.12022 v -0.69608 z" />
      <path
         style="font-variation-settings:normal;opacity:1;fill:#f0c533;fill-opacity:1;stroke:#001f28;stroke-width:7;stroke-linecap:butt;stroke-linejoin:round;stroke-miterlimit:4;stroke-dasharray:none;stroke-dashoffset:0;stroke-opacity:1;paint-order:stroke markers fill"
         d="m 133.95897,79.111151 v 6.638084 c 0,0 -0.12325,1.86641 2.0777,1.86641 2.20096,0 1.97206,-1.884018 1.97206,-1.884018 V 79.05833 c 0,0 0.12325,-1.49665 -2.00728,-1.49665 -2.13052,0 -2.04248,1.549471 -2.04248,1.549471 z"
         id="path21" />
      <path
         style="font-variation-settings:normal;opacity:1;fill:#f0c533;fill-opacity:1;stroke:#001f28;stroke-width:7;stroke-linecap:butt;stroke-linejoin:round;stroke-miterlimit:4;stroke-dasharray:none;stroke-dashoffset:0;stroke-opacity:1;paint-order:stroke markers fill"
         d="m 164.10326,79.111151 v 6.638084 c 0,0 -0.12325,1.86641 2.0777,1.86641 2.20096,0 1.97206,-1.884018 1.97206,-1.884018 V 79.05833 c 0,0 0.12325,-1.49665 -2.00728,-1.49665 -2.13052,0 -2.04248,1.549471 -2.04248,1.549471 z"
         id="path22" />
    </g>
    <g
       id="g2"
       style="font-variation-settings:normal;fill:#02929d;fill-opacity:1;stroke:#001f28;stroke-width:7;stroke-linecap:butt;stroke-linejoin:round;stroke-miterlimit:4;stroke-dasharray:none;stroke-dashoffset:0;stroke-opacity:1;paint-order:stroke markers fill;stop-color:#000000"
       transform="matrix(0.5829495,0,0,0.5829495,-38.004229,-33.163834)">
      <path
         id="path3"
         style="font-variation-settings:normal;opacity:1;fill:#02929d;fill-opacity:1;stroke:#001f28;stroke-width:7;stroke-linecap:butt;stroke-linejoin:round;stroke-miterlimit:4;stroke-dasharray:none;stroke-dashoffset:0;stroke-opacity:1;paint-order:stroke markers fill;stop-color:#000000;stop-opacity:1"
         d="M 65.193004 98.313343 L 65.193004 112.39839 C 66.650961 112.63366 68.735761 112.89354 71.642037 113.10312 C 79.409136 113.66322 79.916301 113.08362 79.916301 113.08362 C 82.264848 112.34544 77.994201 110.40039 79.458885 108.3561 C 81.032981 106.1591 83.852673 112.21183 87.109078 114.21032 C 98.192949 114.0996 97.389373 112.93854 106.6707 112.68737 C 106.6707 112.68737 111.72668 115.6637 112.49478 115.50367 C 113.26288 115.34365 114.41575 114.79982 114.41575 114.79982 C 114.41575 114.79982 114.73521 114.38366 113.99911 113.9036 C 113.26301 113.42354 108.46225 110.15917 108.46225 110.15917 C 108.46225 110.15917 107.37405 110.03082 105.06974 109.96681 C 102.76543 109.90281 94.476488 109.48635 94.476488 109.48635 C 94.476488 109.48635 90.892513 109.00663 91.820639 105.64618 C 92.748763 102.28572 94.444576 100.0455 94.444576 100.0455 C 94.444576 100.0455 98.701645 95.436577 102.63817 94.572461 C 106.5747 93.708342 111.59945 94.412897 111.59945 94.412897 C 111.59945 94.412897 113.87154 94.284386 114.76767 93.036217 C 115.66379 91.788048 116.25871 90.331612 116.25871 90.331612 C 116.25871 90.331612 112.49862 89.314775 111.15444 89.026736 C 109.81026 88.738697 108.44209 87.98709 107.738 86.994958 C 107.0339 86.002823 106.70037 83.047008 103.14789 82.918992 C 99.595419 82.790973 97.967991 82.896122 97.335338 82.493489 C 96.666846 82.068048 94.816408 78.847525 91.568883 77.367062 C 91.568883 77.367062 94.270298 81.211767 92.870214 84.106855 C 91.797563 86.324878 86.316972 88.540363 79.710641 92.296905 C 77.445268 93.41965 70.513795 96.319827 65.193004 98.313343 z " />
    </g>
    <g
       id="g6"
       transform="matrix(0.5829495,0,0,0.5829495,-159.7146,-96.594892)">
      <circle
         style="font-variation-settings:normal;opacity:1;fill:#f0c533;fill-opacity:1;stroke:#001e29;stroke-width:7;stroke-linecap:butt;stroke-linejoin:round;stroke-miterlimit:4;stroke-dasharray:none;stroke-dashoffset:0;stroke-opacity:1;paint-order:stroke markers fill"
         id="path5"
         cx="298.80322"
         cy="246.28322"
         r="10.945474" />
      <path
         id="path6-6"
         style="font-variation-settings:normal;opacity:1;fill:#ffffff;fill-opacity:1;stroke:none;stroke-width:8.95097;stroke-linecap:butt;stroke-linejoin:round;stroke-miterlimit:4;stroke-dasharray:none;stroke-dashoffset:0;stroke-opacity:1;paint-order:stroke markers fill"
         d="m 303.60989,236.44965 a 11.131378,11.131378 0 0 0 -2.01021,6.37997 11.131378,11.131378 0 0 0 6.04717,9.90276 10.945474,10.945474 0 0 0 1.04284,-1.75183 8.9870892,8.9870892 0 0 1 -4.96249,-8.03569 8.9870892,8.9870892 0 0 1 1.7539,-5.33404 10.945474,10.945474 0 0 0 -1.87121,-1.16117 z" />
      <path
         id="path6-6-3"
         style="font-variation-settings:normal;opacity:1;fill:#ffffff;fill-opacity:1;stroke:none;stroke-width:8.95097;stroke-linecap:butt;stroke-linejoin:round;stroke-miterlimit:4;stroke-dasharray:none;stroke-dashoffset:0;stroke-opacity:1;paint-order:stroke markers fill"
         d="m 287.85788,246.29711 a 10.945474,10.945474 0 0 0 0.25063,2.31511 8.9870892,8.9870892 0 0 1 7.48998,8.13697 10.945474,10.945474 0 0 0 2.18953,0.43253 11.131378,11.131378 0 0 0 -9.93014,-10.88461 z" />
    </g>
  </g>
</svg>
